<svg xmlns="http://www.w3.org/2000/svg" viewBox="0 0 1080 1080"><g id="Camada_1" data-name="Camada 1"><path d="M770.34,495.89H807a5.68,5.68,0,0,0,5.68-5.72v-28.7a5.72,5.72,0,0,0-5.72-5.72h-36.6a5.72,5.72,0,0,1-5.72-5.72l-.08-75.43a5.73,5.73,0,0,1,5.73-5.73H885.45a5.72,5.72,0,0,0,5.73-5.72V334.46a5.73,5.73,0,0,0-5.73-5.73H730.11a5.73,5.73,0,0,0-5.72,5.73l.05,160.83c0,89.21,15.84,157.76,47.06,203.75,28,41.16,67.93,63.68,115.91,65.39a5.78,5.78,0,0,0,5.94-5.76V732.39c0-5.58-2.48-8-5.56-8.11-78.32-3.53-121.88-82.17-123.17-222.54A5.77,5.77,0,0,1,770.34,495.89Z"/><path d="M525.12,326.64h-9.91l-14.89.22c-75.54,7.63-134.44,82-134.44,170.23V750.55c0,8.65,6.18,15.69,13.78,15.69h11c7.59,0,13.77-7,13.77-15.69V508.91c0-6.54,4.45-11.86,9.91-11.86H490.6c5.36,0,9.72,5.22,9.72,11.63V751.32c0,8.65,6.18,15.68,13.77,15.68h11c7.6,0,13.77-7,13.77-15.68v-409C538.89,333.67,532.72,326.64,525.12,326.64Zm-24.8,48.7v74c0,2-1.26,3.55-2.81,3.55H415.65a2.66,2.66,0,0,1-2.15-1.25,4.11,4.11,0,0,1-.49-3.71c14.72-40.56,47-69.74,84.17-76.17a2.21,2.21,0,0,1,1.83.56A4,4,0,0,1,500.32,375.34Z"/><path d="M687.5,327.29H674.6a13.57,13.57,0,0,0-13.48,12c-3.84,31.17-21.88,65.35-45.37,85a3.62,3.62,0,0,1-6-2.67V341.28a13.61,13.61,0,0,0-13.66-13.6H583.25a13.66,13.66,0,0,0-13.66,13.65v409A13.67,13.67,0,0,0,583.25,764h12.82a13.66,13.66,0,0,0,13.66-13.66V483.12a14,14,0,0,1,8.1-12.47l11.7-5.82a3.91,3.91,0,0,1,5.54,2.58l69.4,288a13.66,13.66,0,0,0,16.47,10.08l12.47-3A13.65,13.65,0,0,0,743.49,746l-75.2-312.08A13.64,13.64,0,0,1,670.41,423c16.61-24.1,27.7-52.88,30.76-80.54A13.73,13.73,0,0,0,687.5,327.29Z"/><path d="M403.41,354.67V341.85a13.65,13.65,0,0,0-13.66-13.66H292.12v.05c-55.34,1-98.08,37.35-105.33,87.52-1.17,8.1,5.42,15.3,13.61,15.3h13c6.81,0,12.28-5.07,13.51-11.78a59.22,59.22,0,0,1,24-37.81c8.82-6.33,21.15.57,21.15,11.43V751.32A13.66,13.66,0,0,0,285.71,765h12.82a13.66,13.66,0,0,0,13.66-13.66V382a13.65,13.65,0,0,1,13.66-13.65h63.9A13.66,13.66,0,0,0,403.41,354.67Z"/><path d="M931.37,830.87H148.63a67.84,67.84,0,0,1-67.76-67.76V316.89a67.84,67.84,0,0,1,67.76-67.76H931.37a67.84,67.84,0,0,1,67.76,67.76V763.11A67.84,67.84,0,0,1,931.37,830.87ZM148.63,286.3A30.62,30.62,0,0,0,118,316.89V763.11a30.62,30.62,0,0,0,30.59,30.59H931.37A30.62,30.62,0,0,0,962,763.11V316.89a30.62,30.62,0,0,0-30.59-30.59Z"/></g></svg>